<svg width="98.000000" height="139.050293" viewBox="0 0 98 139.05" fill="none" xmlns="http://www.w3.org/2000/svg" xmlns:xlink="http://www.w3.org/1999/xlink">
	<desc>
			Created with Pixso.
	</desc>
	<defs/>
	<path id="Vector" d="M49.0251 0C22.001 0 0 21.9634 0 48.9409L0 139.05L98 139.05L98 48.9409C98 21.9634 76.0492 0 49.0251 0ZM1.8083 137.195L1.8083 48.9409C1.8083 22.9663 23.0056 1.80518 49.0251 1.80518C75.0446 1.80518 96.2419 22.9663 96.2419 48.9409L96.2419 137.245L1.8083 137.245L1.8083 137.195Z" fill="#FFFFFF" fill-opacity="1.000000" fill-rule="nonzero"/>
	<path id="Vector" d="M81.3234 51.2979L56.2583 51.2979L80.6202 44.7788C81.1225 44.6284 81.3737 44.1772 81.2732 43.6758C81.1225 43.1743 80.6704 42.9238 80.1681 43.0239L55.8063 49.5425L77.9078 36.8062C78.1087 36.7056 78.2594 36.5049 78.3096 36.2544C78.3598 36.0039 78.3598 35.8032 78.2091 35.5522C78.0584 35.3018 77.9078 35.2012 77.6566 35.1514C77.4055 35.1011 77.2045 35.1011 76.9534 35.2515L54.8017 48.0381L72.9852 29.8862C73.1358 29.7358 73.2363 29.4849 73.2363 29.2344C73.2363 28.9834 73.1358 28.7827 72.9852 28.5825C72.8345 28.4316 72.5833 28.3315 72.3322 28.3315C72.081 28.3315 71.8801 28.4316 71.6791 28.5825L53.5961 46.6343L66.5054 24.3198C66.7565 23.8687 66.6059 23.3174 66.1538 23.0664C65.9529 22.9663 65.7017 22.916 65.4505 22.9663C65.1994 23.0161 64.9985 23.1665 64.898 23.3672L51.7878 45.9824L58.6192 20.5591C58.7699 20.0576 58.4685 19.6064 57.9662 19.4561C57.4639 19.3057 57.0118 19.6064 56.8611 20.1079L50.1804 44.9292L50.1804 19.2056C50.1804 18.7041 49.7786 18.3027 49.2763 18.3027C48.774 18.3027 48.3721 18.7041 48.3721 19.2056L48.3721 44.9795L41.7919 20.0078C41.7417 19.7568 41.591 19.5562 41.3901 19.4561C41.1891 19.356 40.938 19.3057 40.6868 19.356C40.1845 19.5063 39.9334 19.9575 40.0338 20.459L46.9154 46.0825L33.6545 23.0664C33.4034 22.6152 32.8509 22.4648 32.3988 22.7153C32.1978 22.8159 32.0472 23.0161 31.9969 23.2671C31.9467 23.5176 31.9467 23.7183 32.0974 23.9692L45.1574 46.6343L26.6725 28.1812C26.3209 27.8301 25.7683 27.8301 25.4167 28.1812C25.2158 28.3315 25.1153 28.5825 25.1153 28.833C25.1153 29.084 25.2158 29.2842 25.3665 29.4849L44.0021 48.0884L21.2476 34.9507C20.7955 34.6997 20.243 34.8506 19.9918 35.3018C19.7406 35.7529 19.8913 36.3047 20.3434 36.5552L42.9974 49.6431L17.8821 42.8232C17.631 42.7729 17.43 42.7729 17.1789 42.9238C16.978 43.0239 16.8273 43.2246 16.777 43.4751C16.6264 43.9766 16.9277 44.4277 17.43 44.5781L42.5956 51.2979L16.6766 51.2979C16.1743 51.2979 15.7724 51.6987 15.7724 52.2002C15.7724 52.7017 16.1743 53.103 16.6766 53.103L81.2732 53.103C81.7755 53.103 82.1774 52.7017 82.1774 52.2002C82.2276 51.6987 81.8257 51.2979 81.3234 51.2979Z" fill="#FFFFFF" fill-opacity="1.000000" fill-rule="nonzero"/>
	<path id="Vector" d="M31.8462 73.2109C31.7458 72.7598 31.5951 72.2583 31.3439 71.8066C31.0928 71.3555 30.7914 70.9043 30.3393 70.5532C29.8872 70.2021 29.3347 69.9014 28.6817 69.7007C28.0287 69.5 27.225 69.3999 26.2706 69.3999C25.3163 69.3999 24.5126 69.5 23.8596 69.7007C23.2066 69.9014 22.654 70.2021 22.202 70.6035C21.7499 70.9546 21.3983 71.4058 21.1471 71.8569C20.896 72.3081 20.7453 72.7598 20.6448 73.2612C20.5443 73.7124 20.4941 74.2139 20.4439 74.665C20.4439 75.1162 20.3936 75.4673 20.3936 75.8184L20.3936 115.533C20.3936 116.084 20.4439 116.686 20.4941 117.338C20.5443 118.09 20.7955 118.792 21.1471 119.444C21.4987 120.146 22.1015 120.748 22.9052 121.199C23.7089 121.65 24.8139 121.901 26.2706 121.901C27.6771 121.901 28.7822 121.65 29.5859 121.199C30.3896 120.748 30.9421 120.146 31.3439 119.444C31.6955 118.792 31.8965 118.04 31.9467 117.338C31.9969 116.636 32.0472 116.034 32.0472 115.533L32.0472 95.9263L25.3665 95.9263L25.3665 98.2832L29.5356 98.2832L29.5356 115.433C29.5356 115.833 29.5356 116.335 29.4854 116.836C29.4854 117.288 29.3347 117.739 29.1338 118.19C28.9329 118.591 28.6315 118.942 28.2296 119.193C27.8278 119.494 27.1748 119.594 26.3209 119.594L26.2204 119.594C25.3665 119.594 24.7135 119.444 24.2614 119.193C23.8093 118.892 23.5079 118.591 23.307 118.19C23.1061 117.789 23.0056 117.338 22.9554 116.836C22.9052 116.335 22.9052 115.833 22.9052 115.433L22.9052 75.9688C22.9052 75.5679 22.9052 75.1162 22.9554 74.6147C23.0056 74.1636 23.1061 73.7124 23.307 73.2612C23.5079 72.8599 23.8093 72.5088 24.2614 72.2583C24.7135 72.0073 25.3665 71.8569 26.2204 71.8569L26.2706 71.8569C27.1246 71.8569 27.7776 72.0073 28.2296 72.2583C28.6817 72.5591 28.9831 72.8599 29.184 73.2612C29.3849 73.6621 29.4854 74.1133 29.5356 74.6147C29.5859 75.1162 29.5859 75.5679 29.5859 76.019L29.5859 81.7856L32.0974 81.7856L32.0974 75.9185C32.0974 75.5679 32.0974 75.1665 32.0472 74.7651C32.0472 74.1636 31.9467 73.7124 31.8462 73.2109Z" fill="#FFFFFF" fill-opacity="1.000000" fill-rule="nonzero"/>
	<path id="Vector" d="M55.2537 73.2612C55.1532 72.7598 55.0025 72.3081 54.7514 71.8569C54.5002 71.4058 54.1989 70.9546 53.7468 70.6035C53.2947 70.2524 52.7422 69.9517 52.0892 69.7007C51.4362 69.5 50.6325 69.3999 49.6781 69.3999C48.7237 69.3999 47.92 69.5 47.267 69.7007C46.614 69.9014 46.0615 70.2021 45.6094 70.6035C45.1573 70.9546 44.8057 71.4058 44.5546 71.8569C44.3034 72.3081 44.1527 72.7598 44.0523 73.2612C43.9518 73.7124 43.9016 74.2139 43.8513 74.665C43.8513 75.0664 43.8011 75.4673 43.8011 75.8184L43.8011 115.533C43.8011 115.884 43.8011 116.285 43.8513 116.686C43.8513 117.137 43.9518 117.588 44.0523 118.04C44.1527 118.491 44.3537 118.993 44.5546 119.444C44.8057 119.945 45.1573 120.347 45.6094 120.698C46.0615 121.048 46.614 121.35 47.267 121.6C47.92 121.801 48.7237 121.951 49.6781 121.951C51.0846 121.951 52.1896 121.7 52.9933 121.249C53.797 120.798 54.3496 120.196 54.7514 119.494C55.103 118.842 55.3039 118.09 55.3542 117.388C55.4044 116.686 55.4546 116.084 55.4546 115.583L55.4546 109.716L52.9431 109.716L52.9431 115.482C52.9431 115.884 52.9431 116.385 52.8929 116.887C52.8929 117.338 52.7422 117.789 52.5413 118.24C52.3403 118.642 52.0389 118.993 51.6371 119.243C51.185 119.544 50.532 119.645 49.6781 119.645C48.8242 119.645 48.1712 119.494 47.7191 119.243C47.267 118.942 46.9657 118.591 46.7647 118.19C46.5638 117.789 46.4131 117.338 46.4131 116.836C46.3629 116.335 46.3629 115.884 46.3629 115.433L46.3629 75.9688C46.3629 75.5679 46.3629 75.1162 46.4131 74.6147C46.4633 74.1636 46.5638 73.7124 46.7647 73.2612C46.9657 72.8599 47.267 72.5088 47.7191 72.208C48.1712 71.9072 48.8242 71.7568 49.6279 71.7568L49.6781 71.7568C50.532 71.7568 51.185 71.9072 51.6371 72.1577C52.0892 72.4585 52.3906 72.7598 52.5413 73.1606C52.7422 73.562 52.8426 74.0132 52.8929 74.5146C52.9431 75.0161 52.9431 75.4673 52.9431 75.9185L52.9431 81.6851L55.4546 81.6851L55.4546 75.8184C55.4546 75.4673 55.4546 75.0664 55.4044 74.665C55.4044 74.2139 55.3542 73.7627 55.2537 73.2612Z" fill="#FFFFFF" fill-opacity="1.000000" fill-rule="nonzero"/>
	<path id="Vector" d="M77.3552 73.2612C77.2547 72.8096 77.104 72.3081 76.8529 71.8569C76.6017 71.4058 76.3004 70.9546 75.8483 70.6035C75.3962 70.2524 74.8437 69.9517 74.1907 69.7007C73.5377 69.5 72.734 69.3999 71.7796 69.3999C70.8252 69.3999 70.0215 69.5 69.3685 69.7007C68.7155 69.9014 68.163 70.2021 67.7109 70.6035C67.2589 70.9546 66.9072 71.4058 66.6561 71.8569C66.4049 72.3081 66.2542 72.7598 66.1538 73.2612C66.0533 73.7124 66.0031 74.2139 65.9529 74.665C65.9529 75.1162 65.9026 75.4673 65.9026 75.8184L65.9026 115.533C65.9026 115.884 65.9026 116.235 65.9529 116.686C65.9529 117.137 66.0533 117.588 66.1538 118.04C66.2542 118.491 66.4552 118.993 66.6561 119.444C66.9072 119.895 67.2589 120.347 67.7109 120.698C68.163 121.048 68.7155 121.35 69.3685 121.6C70.0215 121.801 70.8252 121.951 71.7796 121.951C73.1861 121.951 74.2911 121.7 75.0948 121.249C75.8985 120.798 76.4511 120.196 76.8529 119.494C77.2045 118.842 77.4054 118.09 77.4557 117.388C77.5059 116.686 77.5561 116.084 77.5561 115.583L77.5561 109.716L75.0446 109.716L75.0446 115.482C75.0446 115.884 75.0446 116.385 74.9944 116.887C74.9944 117.338 74.8437 117.789 74.6428 118.24C74.4418 118.642 74.1404 118.993 73.7386 119.243C73.2865 119.544 72.6335 119.645 71.7796 119.645C70.9257 119.645 70.2727 119.494 69.8206 119.243C69.3685 118.942 69.0672 118.591 68.8662 118.19C68.6653 117.789 68.5146 117.338 68.5146 116.836C68.4644 116.335 68.4644 115.833 68.4644 115.433L68.4644 75.9688C68.4644 75.5679 68.4644 75.1162 68.5146 74.6147C68.5648 74.1636 68.6653 73.7124 68.8662 73.2612C69.0672 72.8599 69.3685 72.5088 69.8206 72.208C70.2727 71.9072 70.9257 71.7568 71.7294 71.7568L71.7796 71.7568C72.6335 71.7568 73.2865 71.9072 73.7386 72.1577C74.1907 72.4585 74.4921 72.7598 74.6428 73.1606C74.8437 73.562 74.9441 74.0132 74.9944 74.5146C75.0446 75.0161 75.0446 75.4673 75.0446 75.9185L75.0446 81.6851L77.5561 81.6851L77.5561 75.8184C77.5561 75.4673 77.5561 75.1162 77.5059 74.665C77.5059 74.2139 77.4557 73.7124 77.3552 73.2612Z" fill="#FFFFFF" fill-opacity="1.000000" fill-rule="nonzero"/>
</svg>
